<svg xmlns="http://www.w3.org/2000/svg" xmlns:xlink="http://www.w3.org/1999/xlink" aria-hidden="true" role="img" class="iconify iconify--logos" width="256" height="256" preserveAspectRatio="xMidYMid meet" viewBox="0 0 1024 1024">
  <defs>
    <linearGradient id="gradient1" x1="0%" x2="50%" y1="0%" y2="100%">
      <stop offset="0%" stop-color="#41D1FF"></stop>
      <stop offset="100%" stop-color="#BD34FE"></stop>
    </linearGradient>
    <linearGradient id="gradient2" x1="43.376%" x2="50.316%" y1="2.242%" y2="89.03%">
      <stop offset="0%" stop-color="#FFEA83"></stop>
      <stop offset="8.333%" stop-color="#FFDD35"></stop>
      <stop offset="100%" stop-color="#FFA800"></stop>
    </linearGradient>
  </defs>
  <g transform="translate(0,1024) scale(0.1,-0.1)" fill="url(#gradient1)" stroke="none">
    <path d="M0 5120 l0 -5120 5120 0 5120 0 0 5120 0 5120 -5120 0 -5120 0 0 -5120z m5510 1842 c389 -69 745 -251 1024 -522 307 -298 488 -632 571 -1050 26 -130 32 -455 11 -598 -91 -616 -464 -1148 -1018 -1451 l-78 -43 0 1071 c0 1048 0 1071 -19 1062 -36 -20 -232 -215 -297 -295 -143 -178 -262 -383 -353 -605 -53 -128 -130 -371 -151 -476 -7 -33 -15 -66 -19 -72 -4 -7 -15 29 -25 80 -33 167 -131 444 -221 625 -113 228 -198 355 -351 527 -56 64 -212 205 -235 213 -5 2 -9 -418 -9 -1061 l0 -1065 -67 37 c-188 103 -336 216 -483 367 -166 171 -262 306 -365 512 -75 150 -125 293 -162 469 -25 119 -27 145 -27 368 0 222 2 249 26 365 49 226 125 424 230 598 306 507 797 847 1356 941 167 28 178 29 372 26 120 -2 211 -9 290 -23z"/>
    <path d="M5050 6703 c-230 -22 -412 -74 -613 -174 -389 -194 -696 -545 -833 -954 -68 -203 -78 -274 -78 -525 0 -195 3 -238 22 -323 64 -290 209 -568 399 -768 47 -49 89 -89 93 -89 4 0 6 464 4 1030 -2 665 0 1030 7 1030 20 0 197 -88 289 -144 140 -85 230 -156 369 -291 175 -171 283 -318 401 -547 l65 -127 65 122 c230 431 525 724 936 930 49 24 99 48 112 51 l22 7 0 -1030 c0 -567 3 -1031 8 -1031 12 1 97 83 149 145 185 223 315 513 365 815 17 105 15 364 -5 480 -102 603 -535 1113 -1114 1309 -204 70 -470 103 -663 84z"/>
  </g>
</svg>